<?xml version="1.0" encoding="utf-8"?>
<!-- Generator: Adobe Illustrator 18.0.0, SVG Export Plug-In . SVG Version: 6.00 Build 0)  -->
<!DOCTYPE svg PUBLIC "-//W3C//DTD SVG 1.1//EN" "http://www.w3.org/Graphics/SVG/1.1/DTD/svg11.dtd">
<svg version="1.1" id="Layer_1" xmlns="http://www.w3.org/2000/svg" xmlns:xlink="http://www.w3.org/1999/xlink" x="0px" y="0px"
	 viewBox="0 0 80 80" enable-background="new 0 0 80 80" xml:space="preserve">
<rect x="-8.5" y="-8.8" fill="#A1C62C" width="96.5" height="95.6"/>
<polygon fill="#8EB84A" points="27.2,64.3 28.6,44.3 30,64.3 "/>
<polygon fill="#8EB84A" points="31.8,64.3 33.2,44.3 34.6,64.3 "/>
<polygon fill="#8EB84A" points="25.5,64.3 27.2,41.3 29.2,64.3 "/>
<polygon fill="#8EB84A" points="29.5,64.3 31.5,43.2 32.9,64.3 "/>
<polygon fill="#8EB84A" points="33.2,64.3 34.6,41.3 36.1,64.3 "/>
<polygon fill="#8EB84A" points="58.1,27.3 60.5,-6.5 62.9,27.3 "/>
<polygon fill="#8EB84A" points="65.9,27.3 68.3,-6.5 70.7,27.3 "/>
<polygon fill="#8EB84A" points="55.3,27.3 58.1,-11.5 61.5,27.3 "/>
<polygon fill="#8EB84A" points="62.1,27.3 65.4,-8.3 67.8,27.3 "/>
<polygon fill="#8EB84A" points="68.3,27.3 70.7,-11.5 73.1,27.3 "/>
<polygon fill="#8EB84A" points="58.1,107.3 60.5,73.5 62.9,107.3 "/>
<polygon fill="#8EB84A" points="65.9,107.3 68.3,73.5 70.7,107.3 "/>
<polygon fill="#8EB84A" points="55.3,107.3 58.1,68.5 61.5,107.3 "/>
<polygon fill="#8EB84A" points="62.1,107.3 65.4,71.7 67.8,107.3 "/>
<polygon fill="#8EB84A" points="68.3,107.3 70.7,68.5 73.1,107.3 "/>
<polygon fill="#8EB84A" points="20.9,16.1 21.7,4.9 22.5,16.1 "/>
<polygon fill="#8EB84A" points="23.4,16.1 24.2,4.9 25,16.1 "/>
<polygon fill="#8EB84A" points="19.9,16.1 20.9,3.2 22,16.1 "/>
<polygon fill="#8EB84A" points="22.2,16.1 23.2,4.3 24,16.1 "/>
<polygon fill="#8EB84A" points="24.2,16.1 25,3.2 25.8,16.1 "/>
<polygon fill="#8EB84A" points="34.1,36.2 35.9,11.5 37.6,36.2 "/>
<polygon fill="#8EB84A" points="39.8,36.2 41.5,11.5 43.3,36.2 "/>
<polygon fill="#8EB84A" points="32.1,36.2 34.1,7.9 36.5,36.2 "/>
<polygon fill="#8EB84A" points="37,36.2 39.4,10.3 41.1,36.2 "/>
<polygon fill="#8EB84A" points="41.5,36.2 43.3,7.9 45,36.2 "/>
<polygon fill="#8EB84A" points="78.2,77.8 80.6,44 83.1,77.8 "/>
<polygon fill="#8EB84A" points="86,77.8 88.4,44 90.8,77.8 "/>
<polygon fill="#8EB84A" points="75.4,77.8 78.2,39 81.6,77.8 "/>
<polygon fill="#8EB84A" points="82.2,77.8 85.5,42.2 87.9,77.8 "/>
<polygon fill="#8EB84A" points="88.4,77.8 90.8,39 93.2,77.8 "/>
<polygon fill="#8EB84A" points="-1.8,77.8 0.6,44 3.1,77.8 "/>
<polygon fill="#8EB84A" points="6,77.8 8.4,44 10.8,77.8 "/>
<polygon fill="#8EB84A" points="-4.6,77.8 -1.8,39 1.6,77.8 "/>
<polygon fill="#8EB84A" points="2.2,77.8 5.5,42.2 7.9,77.8 "/>
<polygon fill="#8EB84A" points="8.4,77.8 10.8,39 13.2,77.8 "/>
<path fill="#EE202E" d="M77.3,39c0,18.3-8.2,37.2-25.6,38.9c-2.2,0.2-9.4-4.5-11.7-4.5c-1.7,0-11,4.5-12.7,4.4
	C9.1,76.5,2.7,57.9,2.7,39c0-15.4,5.5-28.8,18.6-31.1c4.4-0.8,12.7,5.7,17.8,5.7c8.3,0,16.7-5.3,23-3.1C71.6,13.9,77.3,26.7,77.3,39
	z"/>
<linearGradient id="SVGID_1_" gradientUnits="userSpaceOnUse" x1="51.3875" y1="51.7838" x2="83.556" y2="51.7838" gradientTransform="matrix(0.7776 -0.6288 0.3911 0.4836 -10.0385 49.8937)">
	<stop  offset="0" style="stop-color:#FDE3D8;stop-opacity:0"/>
	<stop  offset="1" style="stop-color:#F9EED3;stop-opacity:0.6"/>
</linearGradient>
<path fill="url(#SVGID_1_)" d="M71.3,17.5c6.4,8,8.6,32.9,2,38.3c-6.6,5.4-20.6-10.1-27-18.1S40,19,46.6,13.6S64.8,9.6,71.3,17.5z"
	/>
<path fill="#006C43" d="M48,8.2c3.5-2.8,8.2-2.7,8.2-2.7s-1,4.6-4.5,7.3s-7.2,4-8.2,2.7C42.4,14.2,44.5,11,48,8.2z"/>
<polygon fill="#AA7049" points="45.2,19.1 41.1,16.7 41.1,4.9 45.2,3.9 "/>
<path fill="#006C43" d="M36.6,5.5c4.1,1.7,6.3,5.8,6.3,5.8s-4.5,1.3-8.6-0.4S28,5.1,28,5.1S32.5,3.8,36.6,5.5z"/>
</svg>
