<?xml version="1.0" encoding="utf-8"?>
<!-- Generator: Adobe Illustrator 18.0.0, SVG Export Plug-In . SVG Version: 6.00 Build 0)  -->
<!DOCTYPE svg PUBLIC "-//W3C//DTD SVG 1.1//EN" "http://www.w3.org/Graphics/SVG/1.1/DTD/svg11.dtd">
<svg version="1.1" id="Layer_1" xmlns="http://www.w3.org/2000/svg" xmlns:xlink="http://www.w3.org/1999/xlink" x="0px" y="0px"
	 viewBox="0 0 80 80" enable-background="new 0 0 80 80" xml:space="preserve">
<rect x="-6.5" y="-12.8" fill="#BDD7A9" width="96.5" height="95.6"/>
<rect x="-8.5" y="-8.8" fill="#A1C62C" width="96.5" height="95.6"/>
<g>
	<path fill="#F26524" d="M77,74c-1.4-0.2-2.9-0.5-4.3-0.6c-0.8-0.1-1.4-0.2-2.2-0.2c-8.8-1.5-16.3-4.2-24.2-3.9
		c-0.6,0-1.4,0.1-2.1,0.2c-3.5,0.7-7.5,2.6-12.8,3c-0.6,0.1-1.3,0.2-1.9,0.4c-3.8-0.7-7.8,2.2-11.5,2.1c-0.6,0.1-1.3,0.1-1.9,0.2
		c-3.4,0.2-6.7,0-10.1-1.1c-0.8,0-1.6,0-2.4,0c-1.1,0-2.2,0-3.2,0V80H80v-5.8c-0.2,0-0.3,0-0.6,0C78.6,74,77.8,74,77,74z"/>
	<path fill="#F26524" d="M11.7,62.1c6.7-3.7,14.7-1.8,23.4-3.3c0.6,0,1.3,0,1.9-0.1c4.5-0.3,8.6-1.4,13.3-1.7c0.6,0,1.1,0,1.8,0.1
		c4.2,0.3,8.3,1.2,12.8,1.1c0.6,0,1.1,0,1.8,0s1.1,0.1,1.8,0.2c0.8,0,1.6,0,2.2,0c3,0,6.2,0,9.4-0.1V42.4v-1.6
		C80,19.5,62.1,0,40.2,0S0,19.5,0,40.9v18.5c3.2,1.3,6.6,2.6,9.8,2.8C10.4,62.2,11,62.1,11.7,62.1z"/>
</g>
<rect x="0.1" y="52.1" fill="#F26524" width="79.9" height="28.3"/>
<path fill="#FFFFFF" d="M57.7,35.1c1.8,8.8,6.8,14.4,11.1,12.6s6.4-10.4,4.6-19.2s-6.8-14.4-11.1-12.6S55.9,26.3,57.7,35.1z"/>
<ellipse transform="matrix(-6.561276e-02 -0.9978 0.9978 -6.561276e-02 40.0563 97.1087)" cx="65.5" cy="29.8" rx="3.2" ry="8.2"/>
<path fill="#FFFFFF" d="M23.4,35.1c-1.8,8.8-6.8,14.4-11.1,12.6S5.9,37.3,7.7,28.5s6.8-14.4,11.1-12.6S25.2,26.3,23.4,35.1z"/>
<ellipse transform="matrix(-6.561287e-02 0.9978 -0.9978 -6.561287e-02 46.5956 16.0976)" cx="15.8" cy="29.9" rx="3.2" ry="8.2"/>
</svg>
