<?xml version="1.0" encoding="utf-8"?>
<!-- Generator: Adobe Illustrator 18.0.0, SVG Export Plug-In . SVG Version: 6.00 Build 0)  -->
<!DOCTYPE svg PUBLIC "-//W3C//DTD SVG 1.1//EN" "http://www.w3.org/Graphics/SVG/1.1/DTD/svg11.dtd">
<svg version="1.1" id="Layer_1" xmlns="http://www.w3.org/2000/svg" xmlns:xlink="http://www.w3.org/1999/xlink" x="0px" y="0px"
	 viewBox="0 0 80 80" enable-background="new 0 0 80 80" xml:space="preserve">
<rect x="-6.5" y="-12.8" fill="#BDD7A9" width="96.5" height="95.6"/>
<rect x="-8.5" y="-8.8" fill="#A1C62C" width="96.5" height="95.6"/>
<g>
	<path fill="#F26524" d="M6.2,77.2c0.2-1.4,0.5-2.9,0.6-4.3C6.9,72.1,7,71.4,7,70.6c1.5-8.8,4.2-16.3,3.9-24.2
		c0-0.6-0.1-1.4-0.2-2.1c-0.7-3.5-2.6-7.5-3-12.8c-0.1-0.6-0.2-1.3-0.4-1.9c0.7-3.8-2.2-7.8-2.1-11.5c-0.1-0.6-0.1-1.3-0.2-1.9
		C4.8,12.9,5,9.5,6.1,6.1c0-0.8,0-1.6,0-2.4c0-1.1,0-2.2,0-3.2H0.2v79.7H6c0-0.2,0-0.3,0-0.6C6.2,78.8,6.2,78,6.2,77.2z"/>
	<path fill="#F26524" d="M18.1,11.9c3.7,6.7,1.8,14.7,3.3,23.4c0,0.6,0,1.3,0.1,1.9c0.3,4.5,1.4,8.6,1.7,13.3c0,0.6,0,1.1-0.1,1.8
		c-0.3,4.2-1.2,8.3-1.1,12.8c0,0.6,0,1.1,0,1.8s-0.1,1.1-0.2,1.8c0,0.8,0,1.6,0,2.2c0,3,0,6.2,0.1,9.4h15.9h1.6
		c21.4,0,40.9-17.9,40.9-39.8S60.7,0.2,39.3,0.2H20.8C19.6,3.4,18.2,6.8,18,10C18,10.6,18.1,11.3,18.1,11.9z"/>
</g>
<rect x="-0.2" y="0.3" fill="#F26524" width="28.3" height="79.9"/>
<path fill="#FFFFFF" d="M45.1,57.9c-8.8,1.8-14.4,6.8-12.6,11.1c1.8,4.3,10.4,6.4,19.2,4.6s14.4-6.8,12.6-11.1
	C62.5,58.1,53.9,56.1,45.1,57.9z"/>
<ellipse transform="matrix(0.9978 -6.561279e-02 6.561279e-02 0.9978 -4.2054 3.4493)" cx="50.4" cy="65.7" rx="3.2" ry="8.2"/>
<path fill="#FFFFFF" d="M45.1,23.6c-8.8-1.8-14.4-6.8-12.6-11.1c1.8-4.3,10.4-6.4,19.2-4.6S66.1,14.7,64.3,19
	C62.5,23.3,53.9,25.4,45.1,23.6z"/>
<ellipse transform="matrix(-0.9978 -6.561274e-02 6.561274e-02 -0.9978 99.4177 35.209)" cx="50.3" cy="16" rx="3.2" ry="8.2"/>
</svg>
