<?xml version="1.0" encoding="utf-8"?>
<!-- Generator: Adobe Illustrator 18.0.0, SVG Export Plug-In . SVG Version: 6.00 Build 0)  -->
<!DOCTYPE svg PUBLIC "-//W3C//DTD SVG 1.1//EN" "http://www.w3.org/Graphics/SVG/1.1/DTD/svg11.dtd">
<svg version="1.1" id="Layer_1" xmlns="http://www.w3.org/2000/svg" xmlns:xlink="http://www.w3.org/1999/xlink" x="0px" y="0px"
	 viewBox="0 0 80 80" enable-background="new 0 0 80 80" xml:space="preserve">
<rect x="-6.5" y="-12.8" fill="#BDD7A9" width="96.5" height="95.6"/>
<rect x="-8.5" y="-8.8" fill="#A1C62C" width="96.5" height="95.6"/>
<g>
	<path fill="#F26524" d="M73.8,3.3c-0.2,1.4-0.5,2.9-0.6,4.3C73.1,8.4,73,9,73,9.8c-1.5,8.8-4.2,16.3-3.9,24.2
		c0,0.6,0.1,1.4,0.2,2.1c0.7,3.5,2.6,7.5,3,12.8c0.1,0.6,0.2,1.3,0.4,1.9c-0.7,3.8,2.2,7.8,2.1,11.5c0.1,0.6,0.1,1.3,0.2,1.9
		c0.2,3.4,0,6.7-1.1,10.1c0,0.8,0,1.6,0,2.4c0,1.1,0,2.2,0,3.2h5.8V0.2h-5.8c0,0.2,0,0.3,0,0.6C73.8,1.7,73.8,2.5,73.8,3.3z"/>
	<path fill="#F26524" d="M61.9,68.5c-3.7-6.7-1.8-14.7-3.3-23.4c0-0.6,0-1.3-0.1-1.9c-0.3-4.5-1.4-8.6-1.7-13.3c0-0.6,0-1.1,0.1-1.8
		c0.3-4.2,1.2-8.3,1.1-12.8c0-0.6,0-1.1,0-1.8c0-0.6,0.1-1.1,0.2-1.8c0-0.8,0-1.6,0-2.2c0-3,0-6.2-0.1-9.4H42.2h-1.6
		c-21.3,0.1-40.8,18-40.8,40s19.5,40.2,40.9,40.2h18.5c1.3-3.2,2.6-6.6,2.8-9.8C62,69.8,61.9,69.2,61.9,68.5z"/>
</g>
<rect x="51.9" y="0.2" fill="#F26524" width="28.3" height="79.9"/>
<path fill="#FFFFFF" d="M34.9,22.5c8.8-1.8,14.4-6.8,12.6-11.1S37.1,5,28.3,6.8S13.9,13.6,15.7,18S26.1,24.4,34.9,22.5z"/>
<ellipse transform="matrix(-0.9978 6.561274e-02 -6.561274e-02 -0.9978 60.1639 27.4612)" cx="29.6" cy="14.7" rx="3.2" ry="8.2"/>
<path fill="#FFFFFF" d="M34.9,56.8c8.8,1.8,14.4,6.8,12.6,11.1s-10.4,6.4-19.2,4.6s-14.4-6.8-12.6-11.1S26.1,55,34.9,56.8z"/>
<ellipse transform="matrix(0.9978 6.561276e-02 -6.561276e-02 0.9978 4.2966 -1.8066)" cx="29.7" cy="64.5" rx="3.2" ry="8.2"/>
</svg>
