<?xml version="1.0" encoding="utf-8"?>
<!-- Generator: Adobe Illustrator 18.0.0, SVG Export Plug-In . SVG Version: 6.00 Build 0)  -->
<!DOCTYPE svg PUBLIC "-//W3C//DTD SVG 1.1//EN" "http://www.w3.org/Graphics/SVG/1.1/DTD/svg11.dtd">
<svg version="1.1" id="Layer_1" xmlns="http://www.w3.org/2000/svg" xmlns:xlink="http://www.w3.org/1999/xlink" x="0px" y="0px"
	 viewBox="0 0 80 80" enable-background="new 0 0 80 80" xml:space="preserve">
<rect x="-6.5" y="-12.8" fill="#BDD7A9" width="96.5" height="95.6"/>
<path fill="#F26524" d="M78.3-2.2c0,0-34.2,29.5-19.5,80c-37-7.5-61-80-61-80H78.3z"/>
<rect x="-2" y="-2.2" fill="#F26524" width="83.8" height="85.4"/>
<path fill="#4A4D56" d="M-2.3,54.9c0.3-3.4,0.3-7.4,0-10.7c0-0.5,0-1,0-1.5c0-12.8,0-31.1,0-31.1s5.3,0,13.3,0c0.4,0,0.8,0,1.3,0
	C18,12.5,25,18.5,29,14.5c6-5,11-3,16.6-2.2c0.7,0.1,1.5,0.1,2.2,0.2c11.8,1.2,23.2,3,35.2-1c0,1,0,2,0.5,2.9c0,0.5,0,1.2,0,1.9
	c0,4.2,0,10.7,0,17.3c0,0.8,0,1.6,0,2.4c0.5,2.5,0.5,5.5,0.4,8.6c0,0.6,0,1.2,0,1.7c-0.1,1.1-0.2,2.3-0.3,3.3c0,0.7,0,1.3,0,1.8
	c0,2.2,0,3.6,0,3.6s-1.7,0-4.5,0c-0.6,0-1.2,0-1.8,0c-8.4-4.1-15-2.8-23.5-0.6c-0.8,0.2-1.6,0.4-2.4,0.6C41,52.5,31,57.5,22,55.5
	c-8-2-16-3-23.7-0.6C-2.1,54.9-2.3,54.9-2.3,54.9z"/>
<path fill="#EFECD6" d="M-3.5,37.5V17.3c0,0,6.7,0,16.4,0c0.5,0,1,0,1.5,0C21,18.5,29,19.5,36,16.5c2-1,5,1,7.7,2
	c0.7,0.1,1.5,0.1,2.2,0.2c11.1,0.5,21.8-1.2,33-1.4c0.6,0,1.1,0,1.6,0c1.9,0,3,0,3,0s0,9.9,0,15.9c0,0.9,0,1.6,0,2.3
	C83,39.5,79,38.5,77,38.5c-8,2-16-2-23.7,0.2c-0.8,0.1-1.6,0.2-2.4,0.2c-16,4.6-32-2.4-48-1.4c-0.7,0-1.3,0-1.9,0
	C-1.8,37.5-3.5,37.5-3.5,37.5z"/>
</svg>
