<?xml version="1.0" encoding="utf-8"?>
<!-- Generator: Adobe Illustrator 18.0.0, SVG Export Plug-In . SVG Version: 6.00 Build 0)  -->
<!DOCTYPE svg PUBLIC "-//W3C//DTD SVG 1.1//EN" "http://www.w3.org/Graphics/SVG/1.1/DTD/svg11.dtd">
<svg version="1.1" id="Layer_1" xmlns="http://www.w3.org/2000/svg" xmlns:xlink="http://www.w3.org/1999/xlink" x="0px" y="0px"
	 viewBox="0 0 900 200" enable-background="new 0 0 900 200" xml:space="preserve">
<g>
	<g>
		<path fill="#00588E" d="M64.7,180.7L51.3,127L38,180.7H21.9L1.6,99.2h17.4l11.1,59.6l14.7-59.6h12.9l14.7,59.6l11.1-59.6h16.8
			l-20.3,81.5H64.7z"/>
		<path fill="#00588E" d="M164.7,99.2v15.4h-37v16.8h30v15.4h-30v18.6h37v15.4h-53.3V99.2H164.7z"/>
		<path fill="#00588E" d="M220.3,99.2c9.5,0,16.1,6.6,16.1,16.1v11.6c0,4.9-1.9,9.2-7.1,12.2c5.7,2.7,8,7.4,8,12.2v13.4
			c0,9.5-6.6,16.1-16.1,16.1h-42.1V99.2H220.3z M216.2,131.8c2.9,0,3.9-0.7,3.9-3.9v-9.7c0-2.5-1.4-3.9-3.9-3.9h-20.8v17.4H216.2z
			 M217.1,165.5c2.5,0,3.9-1.4,3.9-3.8v-11.8c0-3.4-2-3.6-5.2-3.6h-20.4v19.3H217.1z"/>
		<path fill="#00588E" d="M324.9,99.2c9.5,0,16.1,6.6,16.1,16.1v49.4c0,9.5-6.6,16.1-16.1,16.1h-42.5V99.2H324.9z M320.8,165.3
			c2.5,0,3.9-1.4,3.9-3.9v-43c0-2.5-1.4-3.9-3.9-3.9h-22.1v50.7H320.8z"/>
		<path fill="#00588E" d="M410.3,99.2v15.4h-37v16.8h30v15.4h-30v18.6h37v15.4H357V99.2H410.3z"/>
		<path fill="#00588E" d="M461.6,180.7h-19l-24.8-81.5h18.6l15.7,61.9l16.2-61.9h18.1L461.6,180.7z"/>
		<path fill="#00588E" d="M550.7,99.2v15.4h-37v16.8h30v15.4h-30v18.6h37v15.4h-53.3V99.2H550.7z"/>
		<path fill="#00588E" d="M581.4,99.2v66.1h34.2v15.4h-50.5V99.2H581.4z"/>
		<path fill="#00588E" d="M667.6,98.7c9.5,0,16.1,6.6,16.1,16.1v50.3c0,9.5-6.6,16.1-16.1,16.1h-27.3c-9.5,0-16.1-6.6-16.1-16.1
			v-50.3c0-9.5,6.6-16.1,16.1-16.1H667.6z M667.4,118c0-2.5-1.4-3.9-3.9-3.9h-19.1c-2.5,0-3.8,1.4-3.8,3.9v43.9
			c0,2.5,1.4,3.9,3.8,3.9h19.1c2.5,0,3.9-1.4,3.9-3.9V118z"/>
		<path fill="#00588E" d="M741.3,99.2c9.5,0,16.1,6.6,16.1,16.1v20.6c0,9.5-6.6,16.1-16.1,16.1h-25.4v28.8h-16.3V99.2H741.3z
			 M737.2,136.5c2.5,0,3.9-1.4,3.9-3.8v-14.3c0-2.5-1.4-3.9-3.9-3.9h-21.3v22H737.2z"/>
		<path fill="#00588E" d="M823.9,99.2v15.4h-37v16.8h30v15.4h-30v18.6h37v15.4h-53.3V99.2H823.9z"/>
		<path fill="#00588E" d="M880.8,180.7l-13.1-30.2h-13.1v30.2h-16.3V99.2h41.6c9.5,0,16.1,6.6,16.1,16.1v19.1
			c0,7.7-4.3,13.5-11.1,15.4l13.6,30.9H880.8z M879.6,118.4c0-2.5-1.4-3.9-3.8-3.9h-21.2v20.7h21.2c2.5,0,3.8-1.4,3.8-3.8V118.4z"/>
	</g>
	<g>
		<path fill="#003F70" d="M283.2,19.2v11.1h-26.7v12.1h21.6v11.1h-21.6v13.4h26.7v11.1h-38.4V19.2H283.2z"/>
		<path fill="#003F70" d="M324.2,77.9l-9.5-21.8h-9.5v21.8h-11.7V19.2h29.9c6.8,0,11.6,4.7,11.6,11.6v13.8c0,5.5-3.1,9.7-8,11.1
			l9.8,22.3H324.2z M323.3,33c0-1.8-1-2.8-2.8-2.8h-15.2v14.9h15.2c1.8,0,2.8-1,2.8-2.8V33z"/>
		<path fill="#003F70" d="M346.5,19.2h11.7v58.7h-11.7V19.2z"/>
		<path fill="#003F70" d="M399.8,32.7c0-1.8-1-2.8-2.8-2.8h-12.7c-1.8,0-2.8,1-2.8,2.8v31.6c0,1.8,1,2.8,2.8,2.8H397
			c1.8,0,2.8-1,2.8-2.8v-7.2h11.7v9.5c0,6.8-4.7,11.6-11.6,11.6h-18.6c-6.8,0-11.6-4.7-11.6-11.6V30.4c0-6.8,4.7-11.6,11.6-11.6
			h18.6c6.8,0,11.6,4.7,11.6,11.6v9.5h-11.7V32.7z"/>
		<path fill="#003F70" d="M443.5,19.2h38.4v11.1h-26.7v12.6h21.6v11.1h-21.6v24h-11.7V19.2z"/>
		<path fill="#003F70" d="M490.7,19.2h11.7v58.7h-11.7V19.2z"/>
		<path fill="#003F70" d="M546,77.9l-9.5-21.8h-9.5v21.8h-11.7V19.2h29.9c6.8,0,11.6,4.7,11.6,11.6v13.8c0,5.5-3.1,9.7-8,11.1
			l9.8,22.3H546z M545.1,33c0-1.8-1-2.8-2.8-2.8h-15.2v14.9h15.2c1.8,0,2.8-1,2.8-2.8V33z"/>
		<path fill="#003F70" d="M590.2,30.1v47.8h-11.7V30.1h-15.3V19.2h42.4v10.9H590.2z"/>
		<path fill="#003F70" d="M614,19.2h11.7v23.2H646V19.2h11.7v58.7H646V53.4h-20.2v24.5H614V19.2z"/>
	</g>
</g>
</svg>
