<?xml version="1.0" encoding="utf-8"?>
<!-- Generator: Adobe Illustrator 18.0.0, SVG Export Plug-In . SVG Version: 6.00 Build 0)  -->
<!DOCTYPE svg PUBLIC "-//W3C//DTD SVG 1.1//EN" "http://www.w3.org/Graphics/SVG/1.1/DTD/svg11.dtd">
<svg version="1.1" id="Layer_1" xmlns="http://www.w3.org/2000/svg" xmlns:xlink="http://www.w3.org/1999/xlink" x="0px" y="0px"
	 viewBox="0 0 80 80" enable-background="new 0 0 80 80" xml:space="preserve">
<rect x="-4.1" y="-4.2" fill="#B5AFB2" width="91.8" height="87.7"/>
<rect x="23.8" y="16.2" fill="#AFB5BF" width="22" height="18"/>
<rect x="33.2" y="50.7" fill="#AFB5BF" width="22" height="18"/>
<rect x="61.5" y="17.5" fill="#AFB5BF" width="22" height="18"/>
<rect x="48.8" y="-0.5" fill="#AFB5BF" width="22" height="18"/>
<rect x="55.5" y="55.8" fill="#BCB5B3" width="13.2" height="7.7"/>
<rect x="64.8" y="69.8" fill="#BCB5B3" width="13.2" height="7.7"/>
<rect x="21.7" y="72" fill="#BCB5B3" width="13.2" height="7.7"/>
<rect x="16.5" y="63.5" fill="#9AA2AE" width="13.2" height="7.7"/>
<rect x="47.4" y="46.3" fill="#9AA2AE" width="13.2" height="7.7"/>
<rect x="57.7" y="64.8" fill="#9AA2AE" width="13.2" height="7.7"/>
<rect x="34.3" y="38" fill="#9AA2AE" width="13.2" height="7.7"/>
<rect x="19.9" y="37.2" fill="#9AA2AE" width="13.2" height="7.7"/>
<rect x="13.3" y="10.2" fill="#9AA2AE" width="13.2" height="7.7"/>
<rect x="31" y="5.3" fill="#9AA2AE" width="13.2" height="7.7"/>
<rect x="40.8" y="26.5" fill="#9AA2AE" width="13.2" height="7.7"/>
<rect x="45" y="8.5" fill="#9AA2AE" width="13.2" height="7.7"/>
<rect x="62.9" y="35.8" fill="#9AA2AE" width="13.2" height="7.7"/>
<rect x="66.8" y="7.7" fill="#9AA2AE" width="13.2" height="7.7"/>
<rect x="40.8" y="66" fill="#A6A1A5" width="13.2" height="7.7"/>
<rect x="16.5" y="52" fill="#A6A1A5" width="13.2" height="7.7"/>
<rect x="45" y="36.2" fill="#A6A1A5" width="13.2" height="7.7"/>
<rect x="26.5" y="57.2" fill="#A6A1A5" width="13.2" height="7.7"/>
<rect x="-6.6" y="-2.3" fill="#A6A1A5" width="13.2" height="7.7"/>
<rect x="39.2" y="10.2" fill="#A6A1A5" width="13.2" height="7.7"/>
<rect x="21.7" y="30.3" fill="#A6A1A5" width="13.2" height="7.7"/>
<rect x="9.9" y="18.8" fill="#A6A1A5" width="13.2" height="7.7"/>
<rect x="19.9" y="4.7" fill="#A6A1A5" width="13.2" height="7.7"/>
<rect x="54.9" y="3.8" fill="#A6A1A5" width="13.2" height="7.7"/>
<rect x="-2.1" y="43.8" fill="#A6A1A5" width="13.2" height="7.7"/>
<rect x="-2.1" y="68.2" fill="#A6A1A5" width="13.2" height="7.7"/>
<rect x="4.5" y="59.7" fill="#A6A1A5" width="13.2" height="7.7"/>
<rect x="-2.1" y="33.3" fill="#A6A1A5" width="13.2" height="7.7"/>
<rect x="4.5" y="3" fill="#A6A1A5" width="13.2" height="7.7"/>
<rect x="62.9" y="49.5" fill="#9AA2AE" width="13.2" height="7.7"/>
<rect x="51.6" y="22.7" fill="#9AA2AE" width="13.2" height="7.7"/>
<rect x="11.1" y="26.5" fill="#9AA2AE" width="13.2" height="7.7"/>
<rect x="-1.2" y="11.5" fill="#9AA2AE" width="13.2" height="7.7"/>
<rect x="65.9" y="37.2" fill="#BCB5B3" width="13.2" height="7.7"/>
<rect x="23.1" y="46.8" fill="#BCB5B3" width="13.2" height="7.7"/>
<rect x="19.9" y="16.8" fill="#BCB5B3" width="13.2" height="7.7"/>
<rect x="57.7" y="-3" fill="#BCB5B3" width="13.2" height="7.7"/>
<rect x="5.3" y="31" fill="#BCB5B3" width="13.2" height="7.7"/>
<rect x="7.5" y="46.3" fill="#BCB5B3" width="13.2" height="7.7"/>
<rect x="29.1" y="-2.3" fill="#BCB5B3" width="13.2" height="7.7"/>
<rect x="12.6" y="-6.2" fill="#BCB5B3" width="13.2" height="7.7"/>
<rect x="43" y="17.8" fill="#BCB5B3" width="13.2" height="7.7"/>
<rect x="71.3" y="50.2" fill="#BCB5B3" width="13.2" height="7.7"/>
<rect x="51.6" y="72" fill="#BCB5B3" width="13.2" height="7.7"/>
</svg>
